<?xml version="1.0" encoding="UTF-8" standalone="no"?>
<svg
   xmlns:dc="http://purl.org/dc/elements/1.1/"
   xmlns:cc="http://creativecommons.org/ns#"
   xmlns:rdf="http://www.w3.org/1999/02/22-rdf-syntax-ns#"
   xmlns:svg="http://www.w3.org/2000/svg"
   xmlns="http://www.w3.org/2000/svg"
   viewBox="0 0 570.33588 570.85919"
   height="570.85919"
   width="570.33588"
   xml:space="preserve"
   id="svg2"
   version="1.1"><metadata
     id="metadata8"><rdf:RDF><cc:Work
         rdf:about=""><dc:format>image/svg+xml</dc:format><dc:type
           rdf:resource="http://purl.org/dc/dcmitype/StillImage" /></cc:Work></rdf:RDF></metadata><defs
     id="defs6"><clipPath
       id="clipPath14"
       clipPathUnits="userSpaceOnUse"><path
         id="path12"
         d="M 0,0 H 612 V 792 H 0 Z" /></clipPath><clipPath
       id="clipPath28"
       clipPathUnits="userSpaceOnUse"><path
         id="path26"
         d="M 0,792 H 612 V 0 H 0 Z" /></clipPath></defs><g
     clip-path="url(#clipPath14)"
     transform="matrix(1.3333333,0,0,-1.3333333,-123.74505,813.7204)"
     id="g10"><path
       id="path16"
       style="fill:#50ade5;fill-opacity:1;fill-rule:nonzero;stroke:#50ade5;stroke-width:1;stroke-linecap:butt;stroke-linejoin:miter;stroke-miterlimit:10;stroke-dasharray:none;stroke-opacity:1"
       d="m 92.25,609.75 h 427.5 V 182.25 H 92.25 Z" /><text
       id="text20"
       style="font-variant:normal;font-weight:bold;font-stretch:normal;font-size:284.86410522px;font-family:'Le Havre Bold';-inkscape-font-specification:LeHavre-Bol;writing-mode:lr-tb;fill:#ffffff;fill-opacity:1;fill-rule:nonzero;stroke:none"
       transform="matrix(1,0,0,-1,119.2754,260.3428)"><tspan
         id="tspan18"
         y="0"
         x="0 60.676052 192.853 253.52905">ipie</tspan></text>
<g
       id="g22"><g
         clip-path="url(#clipPath28)"
         id="g24"><g
           transform="translate(307.417,398.1274)"
           id="g30"><path
             id="path32"
             style="fill:#ffffff;fill-opacity:1;fill-rule:nonzero;stroke:none"
             d="m 0,0 c -2.475,2.475 -2.723,11.8 0,14 2.479,2.003 10.723,2.46 12.75,0 2.226,-2.701 2.453,-11.504 0,-14 C 10.516,-2.273 2.254,-2.254 0,0" /></g><g
           transform="translate(319.8721,418.1914)"
           id="g34"><path
             id="path36"
             style="fill:#ffffff;fill-opacity:1;fill-rule:nonzero;stroke:none"
             d="m 0,0 c -2.475,2.475 -2.722,11.8 0,14 2.479,2.003 10.724,2.46 12.75,0 2.226,-2.702 2.454,-11.504 0,-14 C 10.516,-2.273 2.254,-2.254 0,0" /></g><g
           transform="translate(343.9355,418.1914)"
           id="g38"><path
             id="path40"
             style="fill:#ffffff;fill-opacity:1;fill-rule:nonzero;stroke:none"
             d="m 0,0 c -2.476,2.475 -2.723,11.8 0,14 2.479,2.003 10.723,2.46 12.75,0 2.226,-2.702 2.453,-11.504 0,-14 C 10.516,-2.273 2.254,-2.254 0,0" /></g><g
           transform="translate(360.3906,398.1274)"
           id="g42"><path
             id="path44"
             style="fill:#ffffff;fill-opacity:1;fill-rule:nonzero;stroke:none"
             d="m 0,0 c -2.475,2.475 -2.722,11.8 0,14 2.479,2.003 10.724,2.46 12.75,0 2.226,-2.701 2.454,-11.504 0,-14 C 10.516,-2.273 2.254,-2.254 0,0" /></g></g></g></g></svg>